<svg width="320" height="318" viewBox="0 0 320 318" fill="none" xmlns="http://www.w3.org/2000/svg">
<path d="M318.282 154.169C314.84 117.719 296.922 81.3569 281.462 61.2721C215.946 -23.846 84.4507 -23.6831 21.8255 83.2303C4.15948 113.381 -6.92915 180.424 6.1925 230.008C22.9816 293.473 89.1413 318.187 162.716 317.638C231.46 317.095 285.514 286.557 305.752 244.371C318.415 217.946 321.723 190.619 318.282 154.169Z" fill="#D5D5D5"/>
<path d="M21.8255 83.2301C4.15948 113.381 -6.92915 180.423 6.1925 230.008C8.95548 240.653 13.406 250.765 19.3673 259.942L92.4499 216.86L154.67 180.111L300.915 93.8596C294.829 80.963 287.933 69.6818 281.462 61.2786C215.946 -23.8462 84.4507 -23.6833 21.8255 83.2301Z" fill="#EEEEEE"/>
<g opacity="0.2">
<path d="M21.9384 134.437C22.6845 133.941 23.3055 133.271 23.7511 132.483C24.1967 131.696 24.4542 130.812 24.5029 129.903V124.609C24.5029 122.939 23.3535 122.26 21.9384 123.095L5.01644 133.08C4.23911 137.152 3.54814 141.368 2.9502 145.637L21.9384 134.437Z" fill="black"/>
<path d="M15.9053 95.2923L21.9379 91.7287C22.684 91.232 23.305 90.5626 23.7506 89.7748C24.1962 88.987 24.4538 88.103 24.5024 87.1945V81.9001C24.5419 81.559 24.4831 81.2136 24.3332 80.9061C24.1834 80.5987 23.9489 80.3426 23.6587 80.1693C23.043 81.1784 22.4318 82.1988 21.825 83.2305C19.5824 87.1071 17.6044 91.1373 15.9053 95.2923Z" fill="black"/>
<path d="M47.7031 48.7219L52.8189 45.7014C53.5628 45.206 54.182 44.5386 54.6264 43.7532C55.0708 42.9679 55.3278 42.0866 55.3768 41.1808C52.7547 43.5746 50.1968 46.0883 47.7031 48.7219Z" fill="black"/>
<path d="M24.5027 185.61V180.316C24.5027 178.646 23.3533 177.967 21.9381 178.802L0.677734 191.359C0.81947 194.997 1.05865 198.627 1.39527 202.247L21.9381 190.131C22.6825 189.635 23.3024 188.968 23.7479 188.183C24.1934 187.397 24.4519 186.516 24.5027 185.61Z" fill="black"/>
<path d="M86.2375 106.54V101.245C86.2375 99.5754 85.0882 98.8966 83.673 99.7315L59.9544 113.721C59.2091 114.218 58.5891 114.888 58.1447 115.676C57.7003 116.463 57.4439 117.347 57.3965 118.255V123.55C57.3965 125.219 58.5392 125.898 59.9544 125.063L83.673 111.074C84.4191 110.577 85.0401 109.908 85.4857 109.12C85.9313 108.332 86.1889 107.448 86.2375 106.54Z" fill="black"/>
<path d="M6.79688 232.146C7.30181 233.891 7.83332 235.615 8.41134 237.305V233.993C8.41134 232.723 7.74031 232.031 6.79688 232.146Z" fill="black"/>
<path d="M6.96289 170.127C7.70814 169.63 8.32814 168.96 8.77258 168.173C9.21701 167.385 9.47335 166.501 9.52078 165.593V160.298C9.52078 158.629 8.37804 157.95 6.96289 158.785L1.19601 162.199C0.894817 166.082 0.688856 169.985 0.578125 173.908L6.96289 170.127Z" fill="black"/>
<path d="M90.796 79.0632L114.508 65.0737C115.254 64.577 115.875 63.9076 116.321 63.1198C116.766 62.332 117.024 61.448 117.073 60.5395V55.2383C117.073 53.5753 115.923 52.8966 114.508 53.7315L90.796 67.721C90.0499 68.2177 89.4288 68.8871 88.9833 69.6749C88.5377 70.4627 88.2801 71.3467 88.2314 72.2551V77.5496C88.2314 79.2194 89.3808 79.8981 90.796 79.0632Z" fill="black"/>
<path d="M106.667 167.14L130.386 153.151C131.131 152.655 131.75 151.986 132.195 151.2C132.639 150.413 132.896 149.53 132.944 148.623V143.322C132.944 141.652 131.801 140.98 130.386 141.815L106.667 155.805C105.923 156.301 105.303 156.969 104.858 157.756C104.414 158.543 104.157 159.425 104.109 160.332V165.633C104.109 167.303 105.252 167.975 106.667 167.14Z" fill="black"/>
<path d="M44.9589 64.2182L68.6709 50.2016C69.417 49.7048 70.038 49.0354 70.4836 48.2476C70.9291 47.4598 71.1867 46.5758 71.2354 45.6674V40.3729C71.2354 38.7032 70.086 38.0244 68.6709 38.8593L44.9589 52.8759C44.2115 53.3719 43.5892 54.041 43.1425 54.8288C42.6957 55.6167 42.4371 56.501 42.3877 57.4101V62.7045C42.3877 64.3743 43.5437 65.0531 44.9589 64.2182Z" fill="black"/>
<path d="M88.2314 105.399C88.2314 107.069 89.3808 107.748 90.796 106.913L114.508 92.9233C115.254 92.4265 115.875 91.7571 116.321 90.9694C116.766 90.1816 117.024 89.2976 117.073 88.3891V83.0947C117.073 81.4249 115.923 80.7461 114.508 81.581L90.796 95.5705C90.0499 96.0673 89.4288 96.7367 88.9833 97.5245C88.5377 98.3123 88.2801 99.1962 88.2314 100.105V105.399Z" fill="black"/>
<path d="M52.7994 173.629L29.1007 187.619C28.3546 188.116 27.7335 188.785 27.288 189.573C26.8424 190.361 26.5848 191.245 26.5361 192.153V197.447C26.5361 199.117 27.6855 199.796 29.1007 198.961L52.8193 184.972C53.5645 184.474 54.1846 183.805 54.629 183.017C55.0734 182.229 55.3298 181.345 55.3772 180.437V175.143C55.3573 173.473 54.2145 172.794 52.7994 173.629Z" fill="black"/>
<path d="M147.76 0.427124C140.644 0.964976 133.573 2.01057 126.599 3.55626L121.649 6.47498C120.903 6.97175 120.282 7.64116 119.837 8.42894C119.391 9.21672 119.134 10.1007 119.085 11.0092V16.3104C119.085 17.9802 120.234 18.6522 121.649 17.8173L145.368 3.82777C146.551 3.03735 147.404 1.82499 147.76 0.427124Z" fill="black"/>
<path d="M71.2354 157.108V151.814C71.2354 150.144 70.086 149.465 68.6709 150.3L44.9589 164.29C44.2115 164.786 43.5892 165.455 43.1425 166.242C42.6957 167.03 42.4371 167.915 42.3877 168.824V174.118C42.3877 175.788 43.5371 176.467 44.9522 175.632L68.6642 161.642C69.4116 161.146 70.0339 160.477 70.4806 159.689C70.9274 158.902 71.186 158.017 71.2354 157.108Z" fill="black"/>
<path d="M102.09 194.644V189.35C102.09 187.68 100.947 187.001 99.5322 187.836L75.8136 201.826C75.0674 202.323 74.4464 202.992 74.0009 203.78C73.5553 204.568 73.2977 205.451 73.249 206.36V211.654C73.249 213.324 74.3984 214.003 75.8136 213.168L99.5255 199.179C100.272 198.682 100.893 198.013 101.339 197.225C101.785 196.437 102.042 195.553 102.09 194.644Z" fill="black"/>
<path d="M183.358 135.964L207.076 121.975C207.822 121.478 208.443 120.809 208.889 120.021C209.335 119.233 209.592 118.349 209.641 117.441V112.146C209.641 110.476 208.491 109.798 207.076 110.632L183.358 124.622C182.612 125.119 181.992 125.789 181.548 126.577C181.104 127.364 180.847 128.248 180.8 129.156V134.451C180.8 136.12 181.943 136.799 183.358 135.964Z" fill="black"/>
<path d="M199.236 140.478L222.955 126.489C223.7 125.991 224.32 125.322 224.765 124.534C225.209 123.746 225.466 122.862 225.513 121.954V116.66C225.513 114.99 224.37 114.311 222.955 115.146L199.236 129.136C198.49 129.633 197.869 130.302 197.424 131.09C196.978 131.877 196.721 132.761 196.672 133.67V138.964C196.672 140.641 197.854 141.32 199.236 140.478Z" fill="black"/>
<path d="M180.8 61.1975V66.492C180.8 68.1617 181.943 68.8405 183.358 68.0056L207.076 54.0161C207.822 53.5194 208.443 52.85 208.889 52.0622C209.335 51.2744 209.592 50.3904 209.641 49.4819V44.1875C209.641 42.5177 208.491 41.839 207.076 42.6739L183.358 56.6633C182.612 57.1605 181.992 57.8301 181.548 58.6179C181.104 59.4058 180.847 60.2895 180.8 61.1975Z" fill="black"/>
<path d="M196.885 10.8325C196.139 11.3293 195.518 11.9987 195.072 12.7865C194.627 13.5743 194.369 14.4582 194.32 15.3667V20.6679C194.32 22.3309 195.47 23.0097 196.885 22.1748L215.72 11.0362C211.783 9.4433 207.781 8.01788 203.715 6.75989L196.885 10.8325Z" fill="black"/>
<path d="M192.095 37.5156L168.383 51.5051C167.637 52.0018 167.016 52.6712 166.57 53.459C166.125 54.2468 165.867 55.1308 165.818 56.0392V61.3337C165.818 63.0035 166.968 63.6822 168.383 62.8473L192.095 48.8443C192.841 48.3475 193.462 47.6781 193.908 46.8903C194.353 46.1025 194.611 45.2186 194.659 44.3101V39.0156C194.659 37.3594 193.51 36.6807 192.095 37.5156Z" fill="black"/>
<path d="M225.513 60.9603C225.513 59.2906 224.37 58.6118 222.955 59.4467L199.236 73.4362C198.49 73.9329 197.869 74.6023 197.424 75.3901C196.978 76.1779 196.721 77.0619 196.672 77.9704V83.2648C196.672 84.9346 197.821 85.6133 199.236 84.7785L222.955 70.789C223.7 70.2918 224.32 69.6222 224.765 68.8344C225.209 68.0466 225.466 67.1628 225.513 66.2548V60.9603Z" fill="black"/>
<path d="M284.664 78.8184L260.972 92.8011C260.226 93.2979 259.605 93.9673 259.159 94.7551C258.713 95.5429 258.456 96.4268 258.407 97.3353V102.637C258.407 104.306 259.55 104.978 260.965 104.143L284.684 90.1539C285.43 89.6572 286.051 88.9878 286.496 88.2C286.942 87.4122 287.2 86.5282 287.248 85.6197V80.3253C287.228 78.6555 286.079 77.9835 284.664 78.8184Z" fill="black"/>
<path d="M284.325 65.1348L275.927 70.1034C275.181 70.6001 274.56 71.2696 274.114 72.0573C273.669 72.8451 273.411 73.7291 273.362 74.6376V79.932C273.362 81.6018 274.512 82.2806 275.927 81.4457L289.746 73.3004C287.935 70.3907 286.127 67.6688 284.325 65.1348Z" fill="black"/>
<path d="M163.805 102.596V97.3017C163.805 95.6319 162.656 94.9531 161.24 95.788L137.522 109.777C136.777 110.275 136.158 110.945 135.713 111.733C135.269 112.521 135.012 113.404 134.964 114.312V119.606C134.964 121.276 136.113 121.955 137.522 121.12L161.24 107.13C161.987 106.634 162.608 105.964 163.053 105.176C163.499 104.389 163.756 103.505 163.805 102.596Z" fill="black"/>
<path d="M253.81 41.2754L230.091 55.2649C229.346 55.762 228.726 56.4316 228.281 57.2194C227.837 58.0073 227.581 58.891 227.533 59.799V65.0935C227.533 66.7633 228.676 67.442 230.091 66.6071L253.81 52.6176C254.556 52.1209 255.177 51.4515 255.622 50.6637C256.068 49.8759 256.326 48.9919 256.374 48.0834V42.789C256.374 41.1192 255.225 40.4405 253.81 41.2754Z" fill="black"/>
<path d="M145.368 146.974L121.649 160.963C120.903 161.46 120.282 162.129 119.837 162.917C119.391 163.705 119.134 164.589 119.085 165.497V170.792C119.085 172.462 120.234 173.14 121.649 172.306L145.368 158.316C146.114 157.819 146.735 157.15 147.181 156.362C147.626 155.574 147.884 154.69 147.933 153.782V148.487C147.926 146.818 146.777 146.139 145.368 146.974Z" fill="black"/>
<path d="M21.7255 248.349C22.4707 247.851 23.0907 247.182 23.5352 246.394C23.9796 245.606 24.236 244.722 24.2834 243.814V238.52C24.2834 236.85 23.1406 236.171 21.7255 237.006L10.7432 243.482C11.9898 246.511 13.3846 249.474 14.9222 252.36L21.7255 248.349Z" fill="black"/>
<path d="M242.509 92.8149V98.1093C242.509 99.7791 243.658 100.458 245.073 99.6229L268.785 85.6334C269.531 85.1367 270.152 84.4673 270.598 83.6795C271.044 82.8917 271.301 82.0077 271.35 81.0993V75.8048C271.35 74.135 270.2 73.4563 268.785 74.2912L245.073 88.2807C244.327 88.7774 243.706 89.4468 243.261 90.2346C242.815 91.0224 242.557 91.9064 242.509 92.8149Z" fill="black"/>
</g>
<path opacity="0.15" d="M105.831 262.881C105.566 262.726 105.294 262.586 105.014 262.461L105.114 262.399L58.6065 236.402V218.911L48.1357 225.081V242.573L91.2811 266.689C91.3741 267.898 92.1979 269.099 93.7659 270.022C97.0878 271.991 102.489 271.991 105.825 270.022C107.499 269.045 108.329 267.741 108.329 266.445C108.329 265.148 107.499 263.859 105.831 262.881Z" fill="black"/>
<path opacity="0.15" d="M92.178 271.298C91.9116 271.142 91.6365 271.001 91.3542 270.877L91.4538 270.816L44.9467 244.819V227.361L34.4893 233.47V250.962L77.6346 275.079C77.7276 276.287 78.5448 277.488 80.1194 278.412C83.4413 280.38 88.8428 280.38 92.178 278.412C93.8523 277.427 94.6828 276.131 94.6828 274.834C94.6828 273.538 93.8523 272.275 92.178 271.298Z" fill="black"/>
<path opacity="0.15" d="M250.462 302.216C245.838 299.375 240.846 297.213 235.632 295.795C228.949 293.84 221.016 292.401 215.355 290.032C207.967 286.957 204.659 282.403 204.439 277.353C204.313 274.495 205.502 271.122 211.469 268.101C213.215 267.208 215.069 266.553 216.983 266.153C219.656 265.651 222.395 265.63 225.075 266.092C237.114 267.911 242.794 272.649 247.425 277.38C252.056 282.111 257.198 284.487 266.36 288.24C270.28 289.835 274.453 291.349 278.18 292.992L278.266 293.032C280.137 293.763 281.959 294.618 283.721 295.591C286.152 297.152 288.338 298.815 289.421 300.757C290.504 302.698 290.424 304.952 288.418 307.348C287.755 308.157 286.906 308.787 285.946 309.18C284.729 309.68 283.461 310.04 282.166 310.253C279.62 310.724 277.031 310.904 274.446 310.789C272.398 310.68 270.362 310.397 268.36 309.941C261.97 308.544 255.897 305.923 250.462 302.216Z" fill="black"/>
<path d="M56.7124 216.358L60.1274 218.394L53.2842 230.47L49.8693 228.433C48.9923 227.917 48.4541 226.811 48.4541 225.236C48.5441 223.522 49.0284 221.854 49.8676 220.367C50.7068 218.88 51.8773 217.615 53.2842 216.677C54.6263 215.91 55.8354 215.822 56.7124 216.358Z" fill="#AAB1B5"/>
<path d="M51.8691 227.273C51.9605 225.558 52.446 223.89 53.2863 222.402C54.1266 220.915 55.2982 219.651 56.7059 218.713C59.3634 217.139 61.5426 218.415 61.5426 221.564C61.4513 223.279 60.9658 224.947 60.1255 226.434C59.2851 227.921 58.1136 229.185 56.7059 230.123C54.035 231.698 51.8691 230.422 51.8691 227.273Z" fill="#EEEEEE"/>
<g opacity="0.3">
<path d="M53.2842 226.438C53.3483 225.225 53.6916 224.044 54.2861 222.992C54.8806 221.94 55.7096 221.046 56.7058 220.383C58.5926 219.27 60.1274 220.172 60.1274 222.419C60.0632 223.632 59.7199 224.813 59.1254 225.865C58.5309 226.917 57.7019 227.811 56.7058 228.474C54.8189 229.567 53.2842 228.664 53.2842 226.438Z" fill="black"/>
</g>
<g opacity="0.3">
<path d="M57.709 220.974C57.6448 222.187 57.3016 223.367 56.7071 224.419C56.1125 225.471 55.2836 226.365 54.2874 227.029C54.0128 227.186 53.7206 227.309 53.4171 227.395C53.3292 227.084 53.2844 226.762 53.2842 226.438C53.3483 225.225 53.6916 224.045 54.2861 222.993C54.8806 221.941 55.7096 221.047 56.7058 220.383C56.9821 220.224 57.2767 220.101 57.5828 220.017C57.665 220.329 57.7074 220.651 57.709 220.974Z" fill="black"/>
</g>
<path d="M54.287 228.719L94.3695 252.388C94.5545 252.496 94.7083 252.652 94.8156 252.84C94.9229 253.028 94.9798 253.242 94.9807 253.46V267.47H104.654V255.299V252.143C104.655 250.587 104.254 249.058 103.493 247.71C102.731 246.363 101.635 245.244 100.316 244.466L59.1238 220.146C58.7365 219.962 58.3081 219.887 57.8829 219.929C57.4578 219.97 57.0513 220.127 56.7054 220.383C55.7092 221.047 54.8802 221.941 54.2857 222.993C53.6912 224.045 53.3479 225.225 53.2838 226.438C53.2352 226.876 53.3034 227.319 53.4812 227.721C53.6589 228.122 53.9397 228.467 54.2937 228.719H54.287Z" fill="#AAB1B5"/>
<path d="M104.655 252.611C104.652 251.925 104.57 251.241 104.409 250.575C104.442 250.84 104.549 252.727 100.994 253.935C97.154 255.238 94.9814 253.935 94.9814 253.935V267.476H104.655V255.767V252.611Z" fill="#CCCCCC"/>
<g opacity="0.3">
<path d="M54.287 228.718L94.3695 252.387C94.5545 252.495 94.7083 252.652 94.8156 252.84C94.9229 253.028 94.9798 253.242 94.9807 253.46V267.469H98.5684V257.01V255.652C98.5662 254.093 98.1622 252.562 97.3972 251.213C96.6321 249.865 95.5329 248.745 94.2101 247.968L53.8087 224.109C53.496 224.846 53.3182 225.635 53.2838 226.438C53.2352 226.875 53.3034 227.319 53.4812 227.72C53.6589 228.122 53.9397 228.467 54.2937 228.718H54.287Z" fill="black"/>
</g>
<path d="M106.661 261.836V265.875C106.661 266.913 105.997 267.959 104.668 268.746C103.166 269.526 101.506 269.932 99.8213 269.932C98.1369 269.932 96.4762 269.526 94.9746 268.746C93.6458 267.959 92.9814 266.913 92.9814 265.882V261.809H95.0211C95.0304 262.08 95.0941 262.347 95.2084 262.592C95.3227 262.837 95.4851 263.056 95.6855 263.234L95.8516 263.397C96.0366 263.559 96.2344 263.704 96.4429 263.832C97.5038 264.384 98.6773 264.671 99.8678 264.671C101.058 264.671 102.232 264.384 103.293 263.832C103.502 263.706 103.7 263.56 103.884 263.397L104.05 263.234C104.25 263.056 104.412 262.837 104.527 262.592C104.641 262.347 104.705 262.08 104.715 261.809L106.661 261.836Z" fill="#EEEEEE"/>
<path d="M106.661 261.836C106.661 262.868 105.997 263.913 104.668 264.7C103.165 265.477 101.505 265.882 99.8213 265.882C98.1374 265.882 96.4772 265.477 94.9746 264.7C93.6458 263.913 92.9814 262.868 92.9814 261.836C92.9814 260.804 93.6458 259.766 94.9746 258.978V261.856C94.9839 262.128 95.0476 262.394 95.1619 262.64C95.2762 262.885 95.4386 263.103 95.639 263.282L95.8051 263.445C95.9901 263.606 96.1878 263.751 96.3964 263.879C97.4572 264.431 98.6308 264.719 99.8213 264.719C101.012 264.719 102.185 264.431 103.246 263.879C103.456 263.753 103.654 263.608 103.838 263.445L104.004 263.282C104.204 263.103 104.366 262.884 104.48 262.639C104.594 262.394 104.658 262.128 104.668 261.856V258.999C105.997 259.766 106.661 260.804 106.661 261.836Z" fill="#6A7981"/>
<path d="M42.7476 224.598L46.1625 226.634L39.326 238.71L35.9044 236.673C35.0274 236.157 34.4893 235.051 34.4893 233.476C34.5806 231.762 35.0661 230.093 35.9064 228.606C36.7468 227.119 37.9183 225.855 39.326 224.917C40.6614 224.15 41.8772 224.075 42.7476 224.598Z" fill="#AAB1B5"/>
<path d="M37.9043 235.506C37.9956 233.792 38.4811 232.123 39.3215 230.636C40.1618 229.149 41.3333 227.885 42.741 226.947C45.3986 225.372 47.5778 226.648 47.5778 229.798C47.4865 231.512 47.001 233.181 46.1606 234.668C45.3203 236.155 44.1488 237.419 42.741 238.357C40.0702 239.939 37.9043 238.663 37.9043 235.506Z" fill="#EEEEEE"/>
<g opacity="0.3">
<path d="M39.3262 234.678C39.3901 233.466 39.7326 232.286 40.3259 231.234C40.9192 230.182 41.7466 229.288 42.7411 228.623C44.6346 227.51 46.1627 228.413 46.1627 230.66C46.0996 231.873 45.7568 233.054 45.1622 234.106C44.5676 235.158 43.738 236.052 42.7411 236.714C40.8543 237.807 39.3262 236.904 39.3262 234.678Z" fill="black"/>
</g>
<g opacity="0.3">
<path d="M43.718 229.214C43.6549 230.427 43.312 231.608 42.7174 232.66C42.1228 233.712 41.2933 234.606 40.2964 235.268C40.0224 235.427 39.73 235.55 39.426 235.635C39.3438 235.323 39.3014 235.001 39.2998 234.678C39.3637 233.466 39.7062 232.286 40.2995 231.234C40.8928 230.182 41.7202 229.288 42.7148 228.623C42.9916 228.465 43.286 228.342 43.5917 228.257C43.674 228.569 43.7164 228.89 43.718 229.214Z" fill="black"/>
</g>
<path d="M40.3294 236.945L80.4119 260.62C80.5952 260.73 80.7474 260.887 80.8534 261.075C80.9594 261.263 81.0156 261.476 81.0165 261.693V275.234H90.69V263.539V260.383C90.69 258.827 90.289 257.298 89.5275 255.95C88.7659 254.603 87.6706 253.484 86.3516 252.706L45.1595 228.385C44.7711 228.202 44.3417 228.127 43.9155 228.168C43.4893 228.21 43.0817 228.367 42.7345 228.623C41.74 229.287 40.9125 230.182 40.3193 231.234C39.726 232.286 39.3835 233.465 39.3196 234.678C39.2754 235.111 39.345 235.549 39.5213 235.947C39.6976 236.344 39.9743 236.686 40.3228 236.938L40.3294 236.945Z" fill="#AAB1B5"/>
<path d="M90.6901 260.383C90.6874 259.696 90.6049 259.013 90.4443 258.346C90.4841 258.618 90.5838 260.498 87.0293 261.706C83.1892 263.01 81.0166 261.706 81.0166 261.706V275.248H90.6901V263.539V260.383Z" fill="#CCCCCC"/>
<g opacity="0.3">
<path d="M40.3286 236.945L80.4111 260.621C80.5944 260.73 80.7466 260.887 80.8526 261.075C80.9586 261.263 81.0148 261.476 81.0157 261.693V275.235H84.6034V265.257V263.899C84.6046 262.341 84.2034 260.81 83.4406 259.461C82.6777 258.112 81.58 256.993 80.2583 256.216L39.8503 232.35C39.5345 233.086 39.3564 233.875 39.3254 234.678C39.2812 235.112 39.3509 235.55 39.5272 235.947C39.7035 236.344 39.9801 236.687 40.3286 236.938V236.945Z" fill="black"/>
</g>
<path d="M92.703 270.076V274.115C92.703 275.153 92.0386 276.198 90.7098 276.986C89.207 277.766 87.5453 278.172 85.8598 278.172C84.1743 278.172 82.5125 277.766 81.0098 276.986C79.681 276.198 79.0166 275.153 79.0166 274.121V270.049H81.0563C81.0643 270.32 81.1275 270.587 81.2419 270.833C81.3563 271.078 81.5193 271.296 81.7207 271.474C81.7704 271.532 81.8237 271.586 81.8801 271.637C82.0634 271.8 82.2614 271.946 82.4714 272.071C83.5334 272.623 84.7081 272.911 85.8997 272.911C87.0912 272.911 88.2659 272.623 89.3279 272.071C89.5368 271.944 89.7347 271.799 89.9192 271.637C89.979 271.583 90.0255 271.528 90.0786 271.474C90.2767 271.294 90.4375 271.075 90.5516 270.83C90.6657 270.585 90.7307 270.32 90.743 270.049L92.703 270.076Z" fill="#EEEEEE"/>
<path d="M92.703 270.076C92.703 271.108 92.0386 272.153 90.7098 272.94C89.2061 273.717 87.5447 274.122 85.8598 274.122C84.1748 274.122 82.5135 273.717 81.0098 272.94C79.681 272.153 79.0166 271.108 79.0166 270.076C79.0166 269.044 79.681 268.006 81.0098 267.218V270.096C81.0178 270.368 81.081 270.635 81.1954 270.88C81.3098 271.126 81.4728 271.344 81.6742 271.522C81.7239 271.579 81.7772 271.634 81.8336 271.685C82.0169 271.848 82.2149 271.993 82.4249 272.119C83.4869 272.671 84.6616 272.959 85.8531 272.959C87.0447 272.959 88.2194 272.671 89.2814 272.119C89.4903 271.992 89.6882 271.846 89.8727 271.685C89.9325 271.63 89.979 271.576 90.0321 271.522C90.2302 271.341 90.391 271.122 90.5051 270.877C90.6191 270.633 90.6842 270.367 90.6965 270.096V267.239C92.032 268.006 92.703 269.044 92.703 270.076Z" fill="#6A7981"/>
<path d="M153.64 69.1253C153.64 48.0834 146.405 33.293 134.719 26.3966C123.032 19.5003 106.881 20.4981 89.0353 31.0259C53.3577 52.0678 24.4502 103.247 24.4502 145.338C24.4502 166.38 31.6854 181.17 43.372 188.06C55.0585 194.949 71.2098 193.958 89.0552 183.437C124.72 162.395 153.64 111.216 153.64 69.1253Z" fill="#FFDB6A"/>
<path opacity="0.95" d="M153.64 69.1253C153.64 48.0834 146.405 33.293 134.719 26.3966C123.032 19.5003 106.881 20.4981 89.0353 31.0259C53.3577 52.0678 24.4502 103.247 24.4502 145.338C24.4502 166.38 31.6854 181.17 43.372 188.06C55.0585 194.949 71.2098 193.958 89.0552 183.437C124.72 162.395 153.64 111.216 153.64 69.1253Z" fill="white"/>
<g opacity="0.2">
<path d="M52.7996 173.629L36.9141 182.996C38.8362 184.965 41.0029 186.667 43.3586 188.06C44.0762 188.487 44.807 188.881 45.5577 189.241L52.7996 184.971C53.5448 184.474 54.1648 183.804 54.6093 183.017C55.0537 182.229 55.31 181.345 55.3575 180.437V175.143C55.3575 173.473 54.2147 172.794 52.7996 173.629Z" fill="#FFDB6A"/>
<path d="M88.2314 77.5493C88.2314 79.2191 89.3808 79.8979 90.796 79.063L114.508 65.0735C115.254 64.5767 115.875 63.9073 116.321 63.1195C116.766 62.3318 117.024 61.4478 117.073 60.5393V55.2381C117.073 53.5751 115.923 52.8963 114.508 53.7312L90.796 67.7207C90.0499 68.2175 89.4288 68.8869 88.9833 69.6747C88.5377 70.4624 88.2801 71.3464 88.2314 72.2549V77.5493Z" fill="#FFDB6A"/>
<path d="M114.508 81.5814L90.796 95.5709C90.0499 96.0677 89.4288 96.7371 88.9833 97.5249C88.5377 98.3127 88.2801 99.1967 88.2314 100.105V105.4C88.2314 107.069 89.3808 107.748 90.796 106.913L114.508 92.9237C115.254 92.427 115.875 91.7576 116.321 90.9698C116.766 90.182 117.024 89.298 117.073 88.3895V83.0951C117.073 81.4253 115.923 80.7466 114.508 81.5814Z" fill="#FFDB6A"/>
<path d="M71.2367 45.6945V44.4591C67.8789 47.5971 64.6812 50.9094 61.6562 54.3828L68.6722 50.2015C69.4148 49.7074 70.0337 49.0423 70.4791 48.2596C70.9244 47.4768 71.1839 46.5983 71.2367 45.6945Z" fill="#FFDB6A"/>
<path d="M129.955 142.066L106.668 155.805C105.924 156.301 105.304 156.969 104.859 157.756C104.415 158.542 104.158 159.425 104.11 160.332V165.633C104.11 167.303 105.253 167.975 106.668 167.14L113.977 162.823C119.884 156.392 125.23 149.447 129.955 142.066Z" fill="#FFDB6A"/>
<path d="M137.522 109.777C136.777 110.275 136.158 110.945 135.713 111.733C135.269 112.52 135.012 113.404 134.964 114.311V119.606C134.964 121.276 136.113 121.954 137.522 121.12L142.671 118.085C144.686 113.352 146.46 108.515 147.986 103.594L137.522 109.777Z" fill="#FFDB6A"/>
<path d="M71.2364 157.108V151.813C71.2364 150.144 70.087 149.465 68.6718 150.3L44.9599 164.289C44.2125 164.785 43.5902 165.454 43.1434 166.242C42.6967 167.03 42.4381 167.914 42.3887 168.823V174.118C42.3887 175.788 43.5381 176.466 44.9532 175.632L68.6652 161.642C69.4125 161.146 70.0349 160.477 70.4816 159.689C70.9284 158.901 71.1869 158.017 71.2364 157.108Z" fill="#FFDB6A"/>
<path d="M83.6535 99.7519L59.9348 113.741C59.1896 114.239 58.5696 114.908 58.1252 115.696C57.6807 116.484 57.4244 117.368 57.377 118.276V123.57C57.377 125.24 58.5197 125.919 59.9348 125.084L83.6535 111.094C84.4059 110.598 85.0325 109.926 85.4817 109.134C85.9309 108.343 86.1901 107.453 86.2379 106.54V101.245C86.2379 99.5958 85.0686 98.917 83.6535 99.7519Z" fill="#FFDB6A"/>
</g>
<path opacity="0.3" d="M194.839 169.387L67.2766 191.84C58.2011 193.368 50.0557 192.01 43.3587 188.066C31.6721 181.163 24.4502 166.38 24.4502 145.338C24.4502 103.254 53.3776 52.0676 89.0552 31.0189C106.894 20.4979 123.045 19.4797 134.732 26.3964C141.416 30.3401 146.638 36.8631 149.887 45.66L194.839 169.387Z" fill="#FFDE6A"/>
<path d="M280.823 165.729L274.346 150.042C271.249 141.958 272.412 131.037 272.412 131.037C276.139 130.969 279.634 132.258 282.052 136.731C284.471 141.205 289.241 157.095 290.331 160.55C291.301 163.521 291.838 166.622 291.925 169.754C292.138 173.745 291.141 181.089 290.882 185.06C290.763 186.899 290.782 188.664 290.789 190.49C290.796 192.316 290.311 194.291 290.058 196.212C289.91 197.12 289.529 197.973 288.955 198.683C288.597 199.138 288.025 199.287 287.686 199.715C287.348 200.142 287.354 200.774 286.836 201.167C286.318 201.561 285.507 201.541 285.022 201.975C284.556 202.49 284.059 202.975 283.534 203.428C283.023 203.687 282.582 204.072 282.252 204.548C281.966 205.016 281.78 205.98 281.122 206.034C280.465 206.088 280.139 205.403 279.993 204.792C279.799 203.579 279.99 202.336 280.538 201.242C281.096 200.102 281.388 198.846 282.079 197.78C282.649 196.725 282.982 195.555 283.056 194.352C283.142 193.545 282.896 192.581 282.013 193.212C280.969 193.952 279.966 195.289 278.558 195.309C277.581 195.309 277.395 194.57 277.827 193.83C278.544 192.612 279.173 191.341 279.707 190.029C280.252 188.671 280.657 187.314 281.242 185.99C281.558 185.298 281.92 184.629 282.325 183.988C283.421 182.189 282.989 180.098 282.797 178.116C282.517 175.367 281.415 169.238 280.823 165.729Z" fill="#FFA8A7"/>
<path d="M271.781 130.412C277.037 130.813 279.973 131.912 282.777 137.2C285.581 142.487 289.321 155.235 290.138 157.862C291.198 161.032 291.868 164.324 292.131 167.663C292.28 169.576 292.294 171.497 292.171 173.412C292.171 173.412 291.46 174.817 287.255 174.817C283.049 174.817 281.807 174.064 281.807 174.064L280.478 165.864L271.841 146.397L271.781 130.412Z" fill="#6A7981"/>
<path d="M210.479 274.291C210.053 274.101 209.701 275.201 209.814 275.812C210.12 277.583 211.807 279.932 214.744 281.703C217.681 283.475 224.218 284.676 226.132 285.226C228.045 285.776 231.002 287.839 232.776 288.769C236.031 290.466 238.689 290.269 240.164 289.516C240.421 289.349 240.643 289.13 240.814 288.872C240.986 288.614 241.104 288.322 241.16 288.016C241.545 286.658 241.519 286.366 241.373 286.326L210.479 274.291Z" fill="#EEEEEE"/>
<path d="M242.217 282.341C242.05 284.029 241.64 285.683 241.001 287.249C240.62 287.625 240.166 287.916 239.668 288.101C239.17 288.285 238.639 288.361 238.111 288.321C235.639 288.321 233.46 287.432 231.188 286.074C229.728 285.137 228.15 284.406 226.497 283.902C224.504 283.366 220.059 282.389 218.093 281.771C216.254 281.194 214.552 280.238 213.09 278.961C211.994 277.922 210.432 275.913 210.353 274.746C210.685 272.207 211.376 270.863 213.01 270.497C214.644 270.13 216.804 270.612 219.694 271.325C220.558 271.542 221.634 271.841 222.106 271.942C223.873 272.309 225.507 272.709 226.829 273.049C227.928 273.424 229.095 273.542 230.244 273.395C230.769 273.342 231.258 273.102 231.626 272.716C232.091 272.194 232.364 271.298 232.909 271.42C232.909 271.42 242.031 276.287 242.788 276.626C243.632 276.972 242.628 278.092 242.217 282.341Z" fill="#CCCCCC"/>
<path d="M210.353 274.719C210.499 272.954 211.103 270.646 213.136 270.368C216.179 269.947 219.156 271.216 222.079 271.915L218.531 271.08C214.439 270.205 210.97 269.227 210.353 274.719Z" fill="white"/>
<path d="M221.361 271.576C220.991 271.709 220.653 271.922 220.371 272.2C220.066 272.502 219.796 272.839 219.567 273.205C219.281 273.667 219.853 273.965 220.278 273.463C220.606 273.038 220.983 272.655 221.401 272.323C221.697 272.096 222.06 271.978 222.431 271.99L222.936 272.099C222.929 271.685 221.813 271.481 221.361 271.576Z" fill="#FAFAFA"/>
<path d="M225.88 272.492C225.723 272.422 225.553 272.385 225.381 272.385C225.21 272.385 225.04 272.422 224.883 272.492C224.478 272.662 224.129 272.944 223.873 273.307C223.549 273.734 223.26 274.188 223.009 274.664C222.87 274.977 223.621 275.214 223.813 274.888C224.063 274.465 224.333 274.055 224.624 273.66C224.777 273.463 225.434 272.737 225.953 272.825L226.192 272.886C226.232 272.777 226.105 272.648 226.012 272.587L225.88 272.492Z" fill="#FAFAFA"/>
<path d="M228.463 273.259C228.232 273.231 227.997 273.284 227.799 273.408C227.543 273.597 227.319 273.826 227.134 274.087C226.828 274.538 226.589 275.032 226.423 275.553C226.284 275.967 227.088 276.103 227.174 275.832C227.383 275.094 227.779 274.426 228.324 273.897C228.566 273.669 228.861 273.505 229.181 273.422C229.181 273.34 229.081 273.293 229.001 273.279C228.922 273.266 228.583 273.259 228.463 273.259Z" fill="#FAFAFA"/>
<path d="M246.356 266.227C246.356 266.227 243.492 275.113 242.615 277.135C242.336 277.814 241.014 277.644 240.283 277.719C239.405 277.757 238.538 277.942 237.719 278.269C235.579 279.382 234.231 279.362 234.171 276.151C234.171 275.472 233.865 275.119 233.081 275.011C232.482 275.023 231.887 274.917 231.327 274.698C231.261 274.617 231.327 274.495 231.44 274.427C231.795 274.197 232.097 273.892 232.326 273.532C232.555 273.173 232.706 272.767 232.769 272.343C233.659 268.542 234.098 265.264 235.101 260.594L246.356 266.227Z" fill="#FFA8A7"/>
<path d="M253.279 178.34C253.279 178.34 248.9 183.695 246.256 193.721C243.859 203.03 242.035 212.483 240.795 222.026C240.164 226.295 239.699 229.336 238.562 237.108C237.619 243.577 233.46 267.653 233.46 267.653C233.46 267.653 236.51 270.368 239.074 271.345C241.466 272.268 243.678 272.635 244.555 272.268C244.555 272.268 247.498 264.544 251.139 254.43C252.896 249.797 254.298 245.031 255.332 240.176C255.81 237.671 255.697 233.218 255.65 230.972L275.223 200.088C276.804 198.175 278.041 195.992 278.877 193.639C281.449 187.042 278.167 177.525 278.167 177.525L253.279 178.34Z" fill="#EEEEEE"/>
<path d="M246.256 193.72C243.133 205.64 241.439 218.414 239.692 230.632C237.898 242.619 235.539 255.665 233.46 267.646C235.294 255.604 237.652 242.599 239.36 230.585C241.207 218.367 242.881 205.585 246.256 193.72Z" fill="white"/>
<path d="M272.539 187.014H248.502C247.605 189.195 246.855 191.436 246.256 193.72C244.024 202.293 242.311 210.998 241.127 219.785C241.712 223.804 242.369 227.931 242.987 230.768C244.602 238.234 245.605 243.556 246.887 246.644C248.169 249.733 251.232 254.111 251.246 254.111C252.953 249.563 254.319 244.888 255.332 240.128C255.81 237.623 255.697 233.171 255.65 230.924L269.868 208.525L270.971 201.567C274.605 195.512 274.2 190.978 272.539 187.014Z" fill="black"/>
<path d="M280.944 280.223C279.708 278.187 279.037 274.325 276.326 266.431L265.756 275.255L272.021 285.436C272.219 285.957 272.371 286.496 272.473 287.045C273.822 289.047 280.944 280.223 280.944 280.223Z" fill="#FFA8A7"/>
<path d="M284.671 284.527C284.671 284.411 284.718 283.461 284.671 283.346C284.406 282.321 283.788 282.036 282.99 281.466C282.192 280.913 281.456 280.271 280.798 279.551C280.532 279.171 280.479 278.974 280.067 278.805C279.53 278.633 278.963 278.583 278.406 278.658C277.848 278.733 277.313 278.932 276.838 279.239C274.553 280.461 273.855 281.954 273.988 283.543C274.088 284.758 274.187 286.38 273.131 287.106C272.692 287.412 272.001 285.463 272.001 285.463C271.337 286.57 272.267 288.111 272.739 290.364C273.013 291.609 273.036 292.898 272.805 294.152C272.573 296.127 272.307 296.12 271.277 296.256C270.394 296.378 267.882 296.208 266.354 297.294C265.772 297.642 265.311 298.166 265.035 298.794C264.758 299.421 264.681 300.122 264.813 300.797C265.085 301.557 267.377 305.243 275.735 303.865C278.16 303.465 283.256 299.568 283.183 299.209C283.14 298.837 283.14 298.461 283.183 298.089C283.183 297.213 283.243 296.337 283.283 295.469C283.251 294.633 283.3 293.796 283.429 292.971C283.583 292.301 283.685 291.62 283.735 290.934C283.894 289.176 284.06 287.425 284.219 285.674C284.306 285.138 284.738 285.056 284.671 284.527Z" fill="#CCCCCC"/>
<path d="M285.727 284.181C286.551 284.995 286.046 287.364 284.943 290.201C284.452 291.457 283.541 293.629 283.807 295.93C284.073 298.231 284.119 299.324 283.541 300.403C282.631 302.094 277.768 304.259 274.904 304.938C276.636 302.456 277.645 299.523 277.814 296.48C278.107 291.396 278.479 288.118 280.764 285.857C283.641 283.02 285.727 284.181 285.727 284.181Z" fill="black"/>
<path d="M264.832 300.797C264.832 300.797 266.507 304.008 272.978 303.899C275.529 303.859 276.891 302.589 276.964 298.639C277.044 293.887 277.416 289.055 278.924 286.692C280.432 284.33 282.837 283.176 284.704 283.346C285.14 283.481 285.511 283.779 285.741 284.181C285.741 284.181 283.874 283.556 280.97 286.014C278.824 287.833 278.246 291.627 278.28 296.338C278.28 298.374 278.413 300.668 277.834 302.209C277.566 302.886 277.148 303.49 276.611 303.973C276.075 304.456 275.436 304.805 274.745 304.992C271.224 305.997 266.414 304.313 265.198 302.82C264.99 302.534 264.849 302.202 264.786 301.852C264.723 301.501 264.739 301.141 264.832 300.797Z" fill="#EEEEEE"/>
<path d="M272.606 295.394C272.344 295.583 272.157 295.863 272.081 296.181C272.052 296.588 272.131 296.995 272.31 297.36C272.489 297.724 272.761 298.032 273.098 298.252C273.49 298.503 273.828 298.415 273.211 297.573C272.815 296.918 272.605 296.164 272.606 295.394Z" fill="#FAFAFA"/>
<path d="M272.931 292.924C272.931 292.924 272.725 293.059 272.679 293.724C272.786 294.565 273.213 295.329 273.868 295.849C274.532 296.188 274.18 295.387 273.868 294.994C273.408 294.384 273.088 293.677 272.931 292.924Z" fill="#FAFAFA"/>
<path d="M272.725 290.201C272.725 290.201 272.5 290.262 272.725 291.172C273.04 291.746 273.537 292.194 274.134 292.441C274.572 292.495 274.798 292.271 274.247 291.871C273.835 291.559 272.805 290.642 272.725 290.201Z" fill="#FAFAFA"/>
<path d="M268.46 178.34C269.603 179.535 272.446 183.546 272.911 189.716C273.087 193.771 271.841 197.757 269.397 200.957C268.48 214.641 267.61 240.475 267.61 240.475C270.719 244.962 271.51 247.84 273.556 254.512C274.798 258.584 279.104 274.644 279.104 274.644C272.805 275.615 268.978 281.269 268.978 281.269C268.978 281.269 260.248 266.899 254.441 256.901C250.189 249.584 248.728 246.434 247.306 242.287C245.977 238.472 245.047 233.857 243.771 224.951C242.496 216.046 241.247 204.323 240.622 195.554C239.998 186.784 240.356 177.627 240.356 177.627L268.46 178.34Z" fill="#EEEEEE"/>
<path d="M268.978 281.269C265.968 276.402 260.022 266.594 257.105 261.673C253.285 255.068 249.026 248.593 246.807 241.187C245.035 233.712 243.703 226.135 242.821 218.496C241.884 210.873 241.14 203.224 240.642 195.553C240.947 199.382 241.308 203.205 241.725 207.025C242.914 218.469 244.382 229.94 247.146 241.099C249.312 248.464 253.537 254.966 257.311 261.557L268.998 281.242L268.978 281.269Z" fill="white"/>
<path d="M279.814 189.064C278.79 188.726 277.892 188.074 277.243 187.198C276.934 186.587 276.711 185.936 276.578 185.263C276.312 184.138 275.95 183.039 275.495 181.978L274.831 182.277C275.263 183.304 275.61 184.366 275.868 185.453C276.016 186.199 276.269 186.919 276.618 187.591C277.395 188.661 278.494 189.439 279.748 189.804C279.774 189.56 279.801 189.349 279.814 189.064Z" fill="black"/>
<path d="M262.613 196.904C262.77 196.905 262.926 196.889 263.079 196.857C264.128 196.619 264.945 195.9 266.573 193.775C267.809 192.153 267.683 190.992 267.477 189.064C267.397 188.352 266.666 184.571 266.626 183.573L265.929 183.967C265.975 184.992 266.68 188.426 266.753 189.146C266.965 191.06 267.058 191.936 266.002 193.314C264.494 195.282 263.776 195.94 262.919 196.137C262.062 196.334 258.415 195.703 257.431 195.01C256.867 194.61 255.923 189.669 255.365 185.311L254.647 185.413C254.927 187.612 255.923 194.848 257.019 195.594C257.996 196.307 261.152 196.945 262.613 196.904Z" fill="black"/>
<path d="M255.591 126.42L256.913 136.317L270.074 135.631L268.653 124.914L255.591 126.42Z" fill="#FFA8A7"/>
<path d="M250.342 107.897C249.332 109.207 246.236 112.777 245.691 113.714L248.641 115.54L250.342 107.897Z" fill="#F28F8F"/>
<path d="M250.342 107.897C248.92 109.939 247.366 111.883 245.691 113.714C247.011 111.594 248.572 109.641 250.342 107.897Z" fill="white"/>
<path d="M257.65 97.9531C253.584 97.5052 250.946 100.451 249.764 109.295C249.717 109.642 249.219 110.185 248.84 111.508C247.206 117.183 248.116 122.586 249.059 124.025C251.418 125.959 254.036 126.686 257.829 126.353C260.719 126.102 268.094 125.206 271.841 121.215C276.239 116.524 278.485 109.445 275.336 105.779C270.938 100.614 259.909 98.1975 257.65 97.9531Z" fill="#FFA8A7"/>
<path d="M257.65 97.953C251.538 97.4304 250.694 105.06 249.817 109.641C248.149 112.866 247.897 116.741 248.156 120.332C248.217 121.612 248.524 122.866 249.059 124.025C248.475 122.882 248.112 121.635 247.99 120.353C247.618 116.714 247.85 112.784 249.525 109.492C250.328 104.89 251.518 97.1317 257.65 97.953Z" fill="white"/>
<path d="M249.072 124.024C249.59 124.818 253.318 126.773 255.656 126.923L255.437 125.063C253.28 125.006 251.14 124.657 249.072 124.024Z" fill="#F28F8F"/>
<path d="M256.859 113.449C256.899 113.591 256.977 113.719 257.085 113.817C257.193 113.916 257.326 113.981 257.469 114.005C257.611 114.029 257.758 114.011 257.891 113.954C258.024 113.896 258.139 113.801 258.221 113.68C258.649 113.039 259.146 112.45 259.703 111.922C260.41 111.327 261.306 111.018 262.221 111.053C265.636 111.318 264.799 115.913 263.124 117.515C260.38 120.128 258.925 117.868 258.925 117.868C258.925 117.868 256.932 122.314 259.822 124.914C259.822 124.914 264.779 127.099 268.672 125.864C271.582 122.66 273.529 120.638 275.489 117.882C280.139 111.352 280.139 104.89 277.156 103.044C277.322 100.729 276.1 97.2402 271.436 95.2311C266.998 93.3101 264.028 93.5002 260.806 93.6835C257.583 93.8667 253.65 95.3668 250.667 92.8214C250.302 93.7406 250.157 94.7356 250.243 95.7237C250.33 96.7118 250.646 97.6645 251.165 98.5027C250.683 98.266 250.129 98.2346 249.624 98.4153C249.12 98.5961 248.706 98.9742 248.475 99.4666C248.243 99.959 248.212 100.525 248.389 101.041C248.566 101.556 248.936 101.979 249.418 102.216C249.099 102.402 248.853 102.694 248.721 103.044C248.589 103.394 248.58 103.78 248.694 104.137C248.826 104.486 249.053 104.79 249.348 105.013C249.644 105.235 249.995 105.367 250.361 105.392C251.028 105.432 251.698 105.389 252.355 105.263C253.291 107.938 256.248 108.874 258.008 108.766C257.962 108.766 257.729 109.132 257.696 109.18C257.597 109.329 257.504 109.485 257.417 109.641C257.249 109.961 257.109 110.295 256.999 110.639C256.782 111.333 256.698 112.064 256.753 112.791C256.75 113.015 256.786 113.238 256.859 113.449Z" fill="#6A7981"/>
<path d="M250.68 92.8214C250.333 93.7411 250.202 94.7313 250.297 95.7122C250.393 96.6932 250.713 97.6374 251.232 98.4688L251.345 98.6453L251.152 98.557C250.688 98.3474 250.162 98.3307 249.686 98.5104C249.209 98.6902 248.82 99.0522 248.601 99.5199C248.382 99.9876 248.349 100.524 248.51 101.016C248.672 101.508 249.014 101.916 249.465 102.155L249.584 102.216L249.465 102.277C247.797 103.363 249.019 105.528 250.793 105.385C251.327 105.389 251.86 105.348 252.388 105.263C251.602 105.45 250.788 105.484 249.989 105.365C248.514 105.033 247.996 102.949 249.398 102.155V102.277C248.9 102.034 248.517 101.599 248.334 101.067C248.15 100.536 248.18 99.9514 248.418 99.4428C248.656 98.9343 249.082 98.5431 249.602 98.3553C250.122 98.1676 250.694 98.1986 251.192 98.4417L251.119 98.5367C250.598 97.692 250.285 96.7306 250.207 95.7351C250.13 94.7396 250.29 93.7397 250.674 92.8214H250.68Z" fill="white"/>
<path d="M275.436 131.912C278.851 133.867 281.448 140.383 281.196 145.82C281.037 149.268 279.867 158.153 278.844 166.014C278.525 168.491 279.508 172.672 279.934 177.695C280.266 181.422 280.312 185.386 280.312 185.386C280.312 185.386 275.735 191.169 263.178 191.922C247.14 192.893 240.037 188.929 240.037 188.929C240.037 188.929 239.944 175.584 240.33 165.009C240.901 149.336 240.934 144.754 243.333 139.413C244.123 137.838 244.954 134.329 247.565 133.629C249.638 133.08 254.408 131.912 256.301 131.593C259.397 132.408 267.437 132.476 269.43 130.745L269.396 130.29C272.845 130.297 273.33 130.711 275.436 131.912Z" fill="#FFDB6A"/>
<path d="M189.523 172.014C190.048 172.136 190.753 171.858 191.517 171.172C193.067 169.661 194.107 167.686 194.486 165.531C194.626 164.507 194.486 163.753 194.081 163.373L190.939 160.298C190.502 159.938 189.97 159.72 189.411 159.672C188.853 159.623 188.292 159.747 187.803 160.027C185.145 161.425 183.032 165.457 183.338 168.498C183.478 169.862 189.218 171.939 189.523 172.014Z" fill="#6A7981"/>
<path d="M194.32 165.219C194.414 164.787 194.367 164.335 194.187 163.932C194.006 163.529 193.702 163.197 193.321 162.987C192.939 162.776 192.5 162.699 192.072 162.766C191.643 162.834 191.248 163.042 190.945 163.36C189.996 164.033 189.216 164.925 188.668 165.964C188.12 167.003 187.819 168.16 187.789 169.34C187.693 169.774 187.739 170.228 187.919 170.633C188.1 171.038 188.405 171.371 188.789 171.582C189.172 171.793 189.613 171.87 190.043 171.801C190.473 171.732 190.869 171.52 191.171 171.199C192.121 170.528 192.902 169.636 193.45 168.596C193.997 167.557 194.295 166.4 194.32 165.219Z" fill="#EEEEEE"/>
<path d="M210.797 181.347C211.026 181.439 211.274 181.469 211.517 181.435C211.76 181.4 211.991 181.302 212.186 181.15C212.735 180.759 213.187 180.241 213.504 179.638C213.822 179.036 213.996 178.366 214.013 177.682C214.03 177.432 213.983 177.181 213.877 176.955C213.771 176.729 213.609 176.535 213.408 176.392L193.397 164.731C193.1 164.573 192.77 164.494 192.435 164.501C192.101 164.508 191.774 164.601 191.484 164.771C190.745 165.183 190.14 165.805 189.741 166.562C189.342 167.319 189.167 168.178 189.238 169.034C189.26 169.375 189.365 169.704 189.543 169.992C189.722 170.28 189.969 170.518 190.261 170.683L210.797 181.347Z" fill="#6A7981"/>
<path d="M214.013 177.682C214.029 177.432 213.982 177.182 213.877 176.956C213.771 176.73 213.609 176.535 213.408 176.392C213.187 176.284 212.94 176.241 212.697 176.267C212.453 176.294 212.221 176.389 212.026 176.541C211.457 176.932 210.99 177.458 210.665 178.074C210.339 178.69 210.166 179.378 210.159 180.078C210.142 180.332 210.196 180.585 210.313 180.81C210.431 181.034 210.608 181.22 210.824 181.347C211.052 181.439 211.3 181.469 211.543 181.435C211.786 181.4 212.017 181.302 212.212 181.15C212.757 180.756 213.203 180.237 213.516 179.634C213.828 179.032 213.999 178.363 214.013 177.682Z" fill="#EEEEEE"/>
<path d="M235.891 174.654C237.698 174.036 239.034 171.898 241.625 166.386C244.867 159.531 246.615 157.983 248.993 150.965C250.986 145.826 248.329 136.351 247.119 134.376C243.073 135.848 240.25 137.213 237.519 143.01C235.067 148.223 230.158 158.743 227.919 163.373C227.919 163.373 214.89 166.244 211.389 166.481C210.031 166.604 208.665 166.344 207.442 165.728C206.711 165.345 205.899 165.149 205.077 165.158C204.754 165.146 204.433 165.194 204.127 165.3C203.555 165.583 203.048 165.986 202.639 166.481C201.766 167.217 200.85 167.897 199.895 168.518C198.838 169.326 197.596 169.875 196.526 170.697C195.609 171.375 194.6 171.966 194.022 173.011C193.914 173.18 193.842 173.369 193.809 173.568C193.791 173.74 193.811 173.915 193.866 174.079C193.921 174.243 194.01 174.393 194.128 174.518C194.366 174.77 194.663 174.954 194.992 175.054C195.456 175.136 195.905 175.294 196.32 175.523C196.752 175.849 196.785 176.493 197.177 176.88C197.789 177.471 198.792 177.383 199.49 177.871C200.028 178.251 200.327 178.944 200.905 179.229C201.22 179.371 201.557 179.454 201.901 179.473C202.512 179.534 203.117 179.724 203.728 179.724C204.459 179.724 204.778 179.371 205.383 179.046C207.469 177.858 208.598 176.432 212.286 176.181C214.75 176.018 234.084 175.272 235.891 174.654Z" fill="#FFA8A7"/>
<path d="M247.511 133.629C243.106 134.702 240.502 136.344 237.605 141.775C234.947 146.804 227.639 162.878 227.639 162.878L220.331 164.975C219.748 165.846 219.347 166.83 219.153 167.865C218.959 168.901 218.975 169.967 219.201 170.996C219.899 174.485 221.414 176.053 221.414 176.053C221.414 176.053 225.141 175.944 231.493 175.72C237.844 175.496 238.303 173.996 239.698 171.172C241.093 168.349 249.664 151.311 249.664 151.311C249.664 151.311 253.132 138.713 247.511 133.629Z" fill="#6A7981"/>
<path d="M256.321 131.654C253.358 132.211 250.434 133.011 247.524 133.758C245.331 134.201 243.278 135.187 241.545 136.629C238.728 139.215 237.233 142.874 235.565 146.268C232.908 151.793 230.416 157.386 227.858 162.952V163.02H227.785L220.477 165.097C216.929 165.647 213.169 166.862 209.568 166.522C208.325 166.407 207.282 165.586 206.1 165.348C205.512 165.223 204.906 165.223 204.319 165.348C203.764 165.574 203.273 165.938 202.891 166.407C201.05 168.09 198.851 169.238 196.798 170.575C195.835 171.315 194.692 171.932 194.074 173.018C194.679 171.905 195.815 171.281 196.732 170.527C198.758 169.17 200.951 167.955 202.711 166.285C203.111 165.79 203.628 165.407 204.213 165.172C204.826 165.039 205.46 165.039 206.073 165.172C207.289 165.402 208.292 166.21 209.535 166.326C213.135 166.631 216.843 165.416 220.351 164.839L227.619 162.728L227.519 162.816C230.022 157.219 232.606 151.662 235.273 146.146C236.98 142.752 238.508 139.066 241.365 136.473C243.141 134.965 245.283 133.978 247.564 133.616C250.109 132.889 253.451 132.156 256.294 131.647L256.321 131.654Z" fill="white"/>
<path opacity="0.3" d="M244.701 230.755C241.672 242.329 239.452 254.108 238.057 266.003C237.606 269.852 237.034 274.115 234.118 276.585C231.879 278.479 228.802 278.832 225.892 279.049C220.458 279.443 214.565 279.477 210.007 276.572C210.592 278.221 212.18 280.183 214.737 281.717C217.701 283.489 224.212 284.69 226.132 285.24C228.052 285.79 230.995 287.846 232.776 288.783C236.031 290.48 238.689 290.283 240.17 289.53C240.427 289.361 240.647 289.14 240.818 288.881C240.988 288.622 241.104 288.33 241.16 288.023C241.552 286.665 241.519 286.373 241.373 286.339C241.793 285.038 242.082 283.696 242.236 282.335C242.628 278.262 243.565 277.074 242.861 276.64C243.24 275.662 243.811 274.02 244.382 272.33C244.445 272.316 244.508 272.297 244.568 272.275C244.568 272.275 247.512 264.551 251.159 254.444C251.405 253.765 251.637 253.086 251.863 252.448C249.392 248.125 248.13 245.572 247.319 242.301C246.508 239.029 245.631 235.907 244.701 230.755ZM292.105 167.629C291.846 164.29 291.188 160.996 290.145 157.821C289.322 155.194 285.581 142.413 282.777 137.159C279.974 131.905 277.037 130.799 271.782 130.371C270.99 130.284 270.193 130.25 269.397 130.269C269.397 130.269 269.397 130.527 269.397 130.656L268.732 125.722C271.589 122.579 273.522 120.563 275.456 117.841C280.106 111.304 280.106 104.849 277.123 103.003C277.296 100.682 276.067 97.1996 271.41 95.1904C269.921 94.5303 268.359 94.0563 266.759 93.7786C265.193 93.9658 263.649 94.3091 262.148 94.8035C260.082 95.4823 258.029 96.5208 256.713 98.2856C255.571 99.8332 255.099 101.775 254.654 103.655C253.225 109.689 251.797 115.839 252.269 122.022C252.291 123.078 252.545 124.115 253.013 125.056C253.308 125.531 253.695 125.939 254.15 126.256C254.604 126.574 255.117 126.793 255.657 126.903C255.657 126.903 258.521 127.093 259.956 127.12C260.155 128.369 260.441 130.242 260.62 131.491C260.73 131.905 260.711 132.344 260.567 132.747C260.414 132.975 260.218 133.169 259.989 133.318C259.761 133.466 259.505 133.565 259.238 133.609C254.043 135.068 247.983 135.197 244.329 139.243C243.043 140.831 242.011 142.618 241.273 144.537L235.573 157.359C234.337 160.149 233.015 163.047 230.656 164.934C226.397 168.328 220.318 167.419 215.07 168.742C211.263 169.706 207.874 171.871 204.107 172.944C203.243 173.195 202.38 173.432 201.503 173.623C200.626 173.813 199.656 173.724 198.739 173.867C198.39 173.903 198.06 174.05 197.797 174.288C197.533 174.525 197.349 174.841 197.271 175.191C197.247 175.564 197.308 175.938 197.45 176.283C197.629 176.74 197.931 177.135 198.32 177.424C198.728 177.504 199.119 177.656 199.476 177.872C200.021 178.252 200.314 178.944 200.892 179.229C201.206 179.373 201.544 179.453 201.888 179.467C202.492 179.587 203.102 179.671 203.715 179.718C204.446 179.718 204.765 179.365 205.37 179.039L205.841 178.754C207.648 177.634 208.877 176.399 212.279 176.168L212.983 176.127C214.525 176.046 217.707 175.903 221.235 175.734C221.381 175.917 221.468 176.005 221.468 176.005C221.468 176.005 225.195 175.903 231.546 175.679C237.898 175.455 238.356 173.948 239.752 171.131L240.177 170.276V170.344C242.216 166.271 245.844 158.988 247.04 156.606C247.04 156.606 246.601 176.29 246.648 184.836C246.734 200.767 249.179 216.568 251.611 232.302C252.215 236.171 253.823 239.85 255.172 243.536C256.66 247.609 258.195 251.681 259.823 255.686C262.985 263.627 266.813 271.273 271.263 278.54C272.332 280.066 273.224 281.713 273.921 283.448C274.758 285.898 274.712 288.559 274.632 291.145C274.683 293.277 274.38 295.402 273.735 297.431C272.406 301.055 267.789 301.401 264.919 299.263C264.762 299.764 264.737 300.297 264.845 300.811C264.75 301.155 264.732 301.518 264.793 301.87C264.854 302.223 264.992 302.557 265.198 302.847C266.413 304.368 271.224 306.031 274.745 305.019L274.918 304.965C277.781 304.286 282.644 302.128 283.555 300.438C284.139 299.358 284.093 298.265 283.82 295.964C283.548 293.663 284.485 291.491 284.957 290.229C286.066 287.392 286.564 285.029 285.74 284.208C285.51 283.807 285.14 283.509 284.704 283.373C284.438 282.355 283.82 282.07 283.03 281.5C282.226 280.949 281.488 280.305 280.831 279.579C280.702 279.34 280.531 279.128 280.326 278.954C279.901 277.909 279.489 276.524 278.95 274.712H279.123C279.123 274.712 274.798 258.584 273.556 254.512C271.509 247.839 270.719 244.962 267.609 240.475C267.609 240.475 268.174 223.743 268.872 210.079L275.223 200.054C276.457 198.584 277.469 196.935 278.226 195.16C278.206 195.197 278.188 195.236 278.173 195.275C278.298 195.313 278.428 195.329 278.558 195.323C279.967 195.323 280.97 193.965 282.013 193.225C282.102 193.144 282.209 193.086 282.325 193.057C282.441 193.029 282.562 193.031 282.678 193.063L282.751 193.015C283.874 192.465 283.94 195.051 283.92 195.601C283.828 196.908 283.518 198.189 283.003 199.389C282.219 201.384 281.229 203.393 281.322 205.538C281.322 205.688 281.342 205.836 281.382 205.98C281.847 205.742 282.046 204.968 282.266 204.561C282.6 204.089 283.04 203.705 283.548 203.441C284.074 202.992 284.571 202.51 285.036 201.995C285.528 201.561 286.285 201.629 286.857 201.187C287.428 200.746 287.342 200.183 287.7 199.735C288.059 199.287 288.611 199.158 288.976 198.696C289.548 197.986 289.926 197.133 290.072 196.226C290.325 194.305 290.81 192.445 290.803 190.51C290.796 188.576 290.803 186.893 290.903 185.08C291.082 182.209 291.654 177.573 291.879 173.718C291.988 173.632 292.081 173.526 292.152 173.405C292.272 171.481 292.256 169.551 292.105 167.629ZM285.05 182.609C284.664 184.069 283.561 185.182 282.718 186.417C281.03 188.888 280.332 191.963 278.572 194.386C278.678 194.128 278.791 193.864 278.897 193.585C279.737 191.139 280.045 188.536 279.801 185.956C279.984 185.788 280.155 185.607 280.312 185.413C280.312 185.413 280.266 181.449 279.934 177.729C279.489 172.699 278.525 168.525 278.844 166.047C279.223 163.102 279.628 160.006 279.987 157.108C281.008 159.166 281.896 161.291 282.644 163.468C284.438 168.796 284.883 174.471 285.169 180.057C285.26 180.911 285.22 181.775 285.05 182.616V182.609Z" fill="black"/>
<path d="M63.7423 119.26L56.7662 123.373V140.519L47.1326 146.2L58.4272 102.759L50.9329 107.218L38.8145 153.51V160.162L56.7529 149.574V159.484L63.729 155.37V145.433L68.4461 142.65V133.622L63.729 136.405L63.7423 119.26ZM89.1285 84.6423C79.1162 90.5476 71.004 106.363 71.004 120.02C71.004 133.677 79.1162 139.921 89.1285 134.023C99.1408 128.124 107.253 112.302 107.253 98.6385C107.253 84.9749 99.1342 78.7709 89.1285 84.6762V84.6423ZM89.1285 124.513C82.9697 128.145 77.9801 124.289 77.9801 115.907C77.9801 107.524 82.9697 97.7765 89.1285 94.1451C95.2874 90.5136 100.27 94.3691 100.27 102.759C100.27 111.148 95.2808 120.916 89.1285 124.547V124.513ZM134.546 94.6066V77.4948L127.563 81.6081V98.7539L117.936 104.435L129.231 60.9938L121.73 65.4194L109.612 111.725V118.35L127.55 107.761V117.685L134.533 113.572V103.668L139.25 100.885V91.8576L134.546 94.6066Z" fill="#FFC36A"/>
<path d="M62.7788 91.4772C62.796 91.464 62.817 91.4569 62.8386 91.4569C62.8601 91.4569 62.8811 91.464 62.8984 91.4772C62.9382 91.4772 62.9515 91.5451 62.9515 91.613V92.2443C62.9521 92.3136 62.9337 92.3818 62.8984 92.4411C62.8731 92.4996 62.8315 92.5491 62.7788 92.5836L59.9153 94.2738C59.898 94.287 59.877 94.2942 59.8555 94.2942C59.8339 94.2942 59.8129 94.287 59.7957 94.2738C59.7775 94.2566 59.7633 94.2356 59.7541 94.2121C59.7449 94.1886 59.7409 94.1633 59.7425 94.138V88.4024C59.7454 88.3335 59.7636 88.2662 59.7957 88.2056C59.821 88.1471 59.8626 88.0975 59.9153 88.063L62.7256 86.4068C62.7434 86.3919 62.7657 86.3838 62.7888 86.3838C62.8118 86.3838 62.8341 86.3919 62.8519 86.4068C62.8698 86.4253 62.8833 86.4478 62.8914 86.4725C62.8995 86.4973 62.9019 86.5235 62.8984 86.5494V87.1738C62.8988 87.2445 62.8829 87.3143 62.8519 87.3775C62.8224 87.4352 62.779 87.4843 62.7256 87.52L60.6195 88.7622V90.174L62.6127 89.0133C62.631 88.9995 62.6531 88.9921 62.6758 88.9921C62.6985 88.9921 62.7206 88.9995 62.7389 89.0133C62.7571 89.0304 62.7713 89.0515 62.7805 89.075C62.7897 89.0985 62.7937 89.1238 62.7921 89.1491V89.7803C62.7902 89.8515 62.772 89.9213 62.7389 89.9839C62.7134 90.0444 62.669 90.0945 62.6127 90.1265L60.6195 91.2804V92.7533L62.7788 91.4772Z" fill="#CCCCCC"/>
<path d="M65.642 84.6959C66.1868 84.3769 66.5987 84.309 66.8844 84.4855C67.1701 84.662 67.303 85.0489 67.303 85.6598C67.3048 86.0818 67.2305 86.5006 67.0837 86.8951C66.9305 87.2882 66.705 87.6476 66.4194 87.954L67.3163 89.617C67.3223 89.6438 67.3223 89.6716 67.3163 89.6984C67.3157 89.7552 67.3021 89.811 67.2764 89.8613C67.2519 89.9068 67.2179 89.9462 67.1768 89.9767L66.6187 90.3093C66.5323 90.3569 66.4725 90.3704 66.426 90.3093C66.3917 90.2807 66.3625 90.2463 66.3396 90.2075L65.4892 88.6396L64.6189 89.1486V91.2189C64.6201 91.2884 64.6017 91.3567 64.5657 91.4157C64.5386 91.4749 64.4975 91.5262 64.4461 91.5651L63.9146 91.8705C63.8979 91.8849 63.8767 91.8928 63.8548 91.8928C63.8329 91.8928 63.8118 91.8849 63.795 91.8705C63.775 91.8534 63.7595 91.8313 63.7502 91.8063C63.7409 91.7814 63.7381 91.7544 63.7419 91.728V85.9991C63.7406 85.9297 63.7591 85.8613 63.795 85.8023C63.8202 85.7419 63.8617 85.6902 63.9146 85.653L65.642 84.6959ZM64.6654 88.0898L65.6088 87.5332C65.8422 87.4013 66.0459 87.221 66.2067 87.0037C66.3626 86.7679 66.4395 86.4869 66.426 86.2028C66.426 85.8702 66.3529 85.6937 66.2067 85.6665C65.9929 85.6571 65.7822 85.7217 65.6088 85.8498L64.6654 86.4064V88.0898Z" fill="#CCCCCC"/>
<path d="M69.9807 82.1032C70.5255 81.7842 70.9374 81.7095 71.2164 81.886C71.4955 82.0625 71.6416 82.4562 71.6416 83.0671C71.6463 83.9143 71.3406 84.7327 70.7846 85.3614L71.6815 87.0176C71.6876 87.0466 71.6876 87.0767 71.6815 87.1058C71.681 87.1625 71.6673 87.2184 71.6416 87.2687C71.617 87.3162 71.5803 87.3561 71.5353 87.3841L70.9839 87.7099C70.8975 87.7642 70.8311 87.771 70.7912 87.7438C70.7551 87.7145 70.7256 87.6774 70.7049 87.6352L69.8478 86.0741L68.9841 86.5831V88.6534C68.9812 88.7223 68.963 88.7896 68.9309 88.8502C68.9056 88.9087 68.864 88.9583 68.8114 88.9928L68.2798 89.305C68.2619 89.3165 68.2412 89.3225 68.22 89.3225C68.1989 89.3225 68.1782 89.3165 68.1603 89.305C68.1402 89.2879 68.1248 89.2658 68.1155 89.2408C68.1062 89.2159 68.1033 89.1889 68.1071 89.1625V83.4608C68.1057 83.3891 68.1241 83.3186 68.1603 83.2572C68.1856 83.1987 68.2272 83.1491 68.2798 83.1146L69.9807 82.1032ZM69.004 85.4971L69.9475 84.9405C70.1788 84.8084 70.3802 84.628 70.5388 84.4111C70.6997 84.1749 70.7792 83.8907 70.7647 83.6033C70.7647 83.2775 70.6916 83.0942 70.5388 83.0739C70.3281 83.0655 70.1206 83.1275 69.9475 83.2504L69.004 83.807V85.4971Z" fill="#CCCCCC"/>
<path d="M72.332 83.0536C72.3458 82.7104 72.3926 82.3694 72.4716 82.0355C72.5501 81.6976 72.6707 81.3714 72.8303 81.0648C72.9865 80.752 73.1831 80.4621 73.415 80.2028C73.6557 79.9339 73.9359 79.7049 74.2455 79.524C74.497 79.3625 74.7808 79.2604 75.0759 79.2254C75.2849 79.203 75.4943 79.2638 75.6606 79.3951C75.8329 79.5361 75.9582 79.7282 76.0194 79.9449C76.107 80.2216 76.1562 80.5094 76.1655 80.8001C76.1655 80.9087 76.1655 81.0309 76.1655 81.1666C76.1655 81.3024 76.1655 81.445 76.1655 81.5875C76.1655 81.73 76.1655 81.8726 76.1655 82.0083C76.1655 82.1441 76.1655 82.273 76.1655 82.3884C76.1517 82.7317 76.105 83.0727 76.026 83.4066C75.9443 83.7435 75.8239 84.0693 75.6673 84.3772C75.5111 84.6917 75.312 84.982 75.0759 85.2393C74.8376 85.5107 74.557 85.74 74.2455 85.9181C73.9952 86.0835 73.711 86.188 73.415 86.2235C73.2071 86.245 72.9987 86.187 72.8303 86.0606C72.6581 85.9195 72.5327 85.7275 72.4716 85.5108C72.3869 85.2336 72.34 84.9458 72.332 84.6555C72.332 84.5469 72.332 84.4248 72.332 84.289C72.332 84.1532 72.332 84.0107 72.332 83.8682C72.332 83.7256 72.332 83.5831 72.332 83.4473C72.332 83.3116 72.332 83.169 72.332 83.0536ZM75.2819 81.3567C75.2965 81.2076 75.2771 81.0571 75.2252 80.917C75.1733 80.7769 75.0904 80.6509 74.9829 80.549C74.7969 80.4223 74.5511 80.4494 74.2455 80.6304C73.9356 80.8162 73.6825 81.0865 73.5146 81.411C73.3241 81.7698 73.2215 82.1704 73.2157 82.5785C73.2157 82.8093 73.2157 83.0604 73.2157 83.3387C73.2157 83.617 73.2157 83.8614 73.2157 84.0786C73.1995 84.2278 73.2182 84.3788 73.2702 84.5192C73.3221 84.6596 73.4059 84.7854 73.5146 84.8863C73.6332 84.9571 73.7704 84.9885 73.9072 84.9764C74.044 84.9642 74.1738 84.9091 74.2787 84.8184C74.5906 84.6331 74.8459 84.3629 75.0162 84.0379C75.2035 83.6803 75.3059 83.2827 75.3151 82.8772C75.3151 82.6464 75.3151 82.3952 75.3151 82.1169C75.3151 81.8386 75.2952 81.5739 75.2819 81.3567Z" fill="#CCCCCC"/>
<path d="M78.8768 76.8768C79.4216 76.5578 79.8335 76.4831 80.1192 76.6596C80.4049 76.8361 80.5444 77.2298 80.5444 77.8407C80.5456 78.2627 80.4713 78.6813 80.3252 79.076C80.173 79.4676 79.9473 79.825 79.6608 80.1281L80.5577 81.7911C80.5645 81.8201 80.5645 81.8503 80.5577 81.8793C80.5572 81.9361 80.5435 81.9919 80.5178 82.0423C80.4976 82.0907 80.4627 82.1312 80.4182 82.1576L79.8601 82.4835C79.7737 82.5378 79.7139 82.5445 79.6674 82.4835C79.6301 82.4582 79.6002 82.423 79.581 82.3816L78.7306 80.8205L77.8603 81.3295V83.3659C77.8599 83.4343 77.844 83.5017 77.8138 83.5627C77.7843 83.6205 77.7409 83.6696 77.6875 83.7052L77.156 84.0175C77.1388 84.0307 77.1178 84.0378 77.0962 84.0378C77.0747 84.0378 77.0537 84.0307 77.0364 84.0175C77.0174 84.001 77.0026 83.98 76.9933 83.9564C76.9841 83.9327 76.9806 83.9071 76.9833 83.8817V78.1461C76.9862 78.0772 77.0044 78.0099 77.0364 77.9493C77.0618 77.8908 77.1033 77.8412 77.156 77.8067L78.8768 76.8768ZM77.9001 80.2707L78.8436 79.7073C79.0765 79.5778 79.2802 79.3997 79.4415 79.1846C79.5962 78.9457 79.6729 78.663 79.6608 78.3769C79.6608 78.0443 79.5877 77.8678 79.4415 77.8407C79.2286 77.8379 79.0199 77.9019 78.8436 78.0239L77.9001 78.5805V80.2707Z" fill="#CCCCCC"/>
<path d="M86.777 78.4312C86.6973 78.4787 86.6441 78.4855 86.6043 78.4312C86.573 78.4095 86.544 78.3844 86.5179 78.3565L84.6975 75.7432V79.4018C84.6946 79.4707 84.6764 79.538 84.6443 79.5987C84.6169 79.6578 84.573 79.7074 84.5181 79.7412L83.9932 80.0534C83.9749 80.0672 83.9528 80.0747 83.9301 80.0747C83.9074 80.0747 83.8852 80.0672 83.867 80.0534C83.8488 80.0363 83.8345 80.0152 83.8254 79.9917C83.8162 79.9682 83.8122 79.9429 83.8138 79.9177V74.1821C83.8167 74.1132 83.8349 74.0459 83.867 73.9852C83.8944 73.926 83.9383 73.8765 83.9932 73.8427L84.4516 73.5712C84.5247 73.5304 84.5779 73.5237 84.6177 73.5712L84.7041 73.6458L86.5245 76.2591V72.6005C86.5273 72.5295 86.5455 72.4599 86.5777 72.3969C86.6051 72.3377 86.649 72.2881 86.7039 72.2543L87.2288 71.9421C87.2471 71.9283 87.2692 71.9209 87.2919 71.9209C87.3146 71.9209 87.3367 71.9283 87.355 71.9421C87.3732 71.9593 87.3874 71.9804 87.3966 72.0038C87.4058 72.0273 87.4098 72.0526 87.4082 72.0779V77.8135C87.4063 77.8825 87.388 77.9501 87.355 78.0103C87.3255 78.0699 87.2822 78.1212 87.2288 78.1597L86.777 78.4312Z" fill="#CCCCCC"/>
<path d="M81.4677 81.0241C81.4782 80.9346 81.5029 80.8475 81.5407 80.7661C81.5782 80.6808 81.641 80.6096 81.7201 80.5625L82.2251 80.2638C82.2386 80.2539 82.2549 80.2485 82.2716 80.2485C82.2882 80.2485 82.3045 80.2539 82.3181 80.2638C82.332 80.2764 82.3429 80.2922 82.3498 80.3099C82.3567 80.3276 82.3595 80.3467 82.3579 80.3656C82.3579 80.3656 82.3579 80.4064 82.3579 80.4199L81.9726 81.9743C81.9726 82.0354 81.9261 82.1033 81.8929 82.1847C81.8556 82.2646 81.7953 82.3309 81.7201 82.3748L81.4544 82.5309C81.4423 82.5414 81.427 82.5472 81.4112 82.5472C81.3953 82.5472 81.38 82.5414 81.368 82.5309C81.368 82.5309 81.3281 82.4834 81.3281 82.4359L81.4677 81.0241Z" fill="#CCCCCC"/>
<path d="M88.2648 73.6593C88.2786 73.316 88.3253 72.975 88.4043 72.6411C88.483 72.3011 88.6035 71.9727 88.7631 71.6637C88.9186 71.3525 89.1153 71.0648 89.3477 70.8084C89.5871 70.5381 89.8675 70.3089 90.1782 70.1297C90.4282 69.9648 90.7127 69.8625 91.0087 69.831C91.2167 69.8074 91.4258 69.8657 91.5933 69.9939C91.7642 70.1391 91.8891 70.3328 91.9521 70.5505C92.0409 70.8269 92.0901 71.115 92.0983 71.4057C92.0983 71.5143 92.0983 71.6365 92.0983 71.7723V72.6004C92.0983 72.7361 92.0983 72.8651 92.0983 72.9805C92.0845 73.3237 92.0377 73.6647 91.9588 73.9987C91.8771 74.3355 91.7566 74.6613 91.6 74.9693C91.4414 75.2823 91.2425 75.5722 91.0087 75.8313C90.7685 76.1008 90.4882 76.3298 90.1782 76.5101C89.9279 76.6755 89.6438 76.7801 89.3477 76.8156C89.1397 76.8378 88.9312 76.7796 88.7631 76.6527C88.5893 76.5101 88.4638 76.3154 88.4043 76.0961C88.3196 75.8212 88.2726 75.5356 88.2648 75.2476C88.2648 75.1322 88.2648 75.0168 88.2648 74.8811C88.2648 74.7453 88.2648 74.6028 88.2648 74.4602C88.2648 74.3177 88.2648 74.1751 88.2648 74.0326C88.2648 73.8901 88.2315 73.7747 88.2648 73.6593ZM91.2146 71.9623C91.2282 71.8123 91.2084 71.6611 91.1566 71.52C91.1048 71.379 91.0225 71.2517 90.9157 71.1478C90.7977 71.0892 90.6659 71.0657 90.5355 71.0801C90.405 71.0945 90.2812 71.1462 90.1782 71.2293C89.8694 71.4194 89.6168 71.6915 89.4474 72.0166C89.2576 72.3761 89.1529 72.7759 89.1418 73.1841C89.1418 73.4149 89.1418 73.6661 89.1418 73.9376C89.1418 74.2091 89.1418 74.4602 89.1418 74.6842C89.128 74.8328 89.1485 74.9826 89.2016 75.1217C89.2546 75.2608 89.3388 75.3853 89.4474 75.4852C89.5635 75.5466 89.6948 75.5716 89.8248 75.5571C89.9548 75.5426 90.0777 75.4893 90.1782 75.4037C90.4771 75.2164 90.7223 74.9518 90.8891 74.6367C91.0765 74.2791 91.1789 73.8815 91.1881 73.476C91.1881 73.2452 91.1881 72.9941 91.1881 72.7158C91.1881 72.4375 91.2213 72.1795 91.2146 71.9623Z" fill="#CCCCCC"/>
<path d="M95.8981 66.8379C95.9164 66.8241 95.9385 66.8167 95.9612 66.8167C95.9839 66.8167 96.0061 66.8241 96.0243 66.8379C96.0434 66.8543 96.0582 66.8753 96.0674 66.899C96.0767 66.9227 96.0802 66.9483 96.0775 66.9736V67.6049C96.0746 67.6738 96.0564 67.7411 96.0243 67.8017C95.9969 67.8609 95.953 67.9105 95.8981 67.9443L94.7288 68.623V73.4898C94.7259 73.5587 94.7077 73.626 94.6756 73.6867C94.6482 73.7458 94.6043 73.7954 94.5494 73.8292L94.0245 74.1415C94.0063 74.1552 93.9841 74.1627 93.9614 74.1627C93.9387 74.1627 93.9166 74.1552 93.8983 74.1415C93.8788 74.1254 93.8637 74.1044 93.8544 74.0807C93.845 74.0569 93.8419 74.0311 93.8451 74.0057V69.1457L92.6758 69.8245C92.6576 69.8382 92.6354 69.8457 92.6127 69.8457C92.59 69.8457 92.5679 69.8382 92.5496 69.8245C92.5314 69.8073 92.5172 69.7862 92.508 69.7627C92.4988 69.7392 92.4948 69.714 92.4964 69.6887V69.0575C92.4983 68.9863 92.5165 68.9165 92.5496 68.8538C92.577 68.7946 92.6209 68.7451 92.6758 68.7113L95.8981 66.8379Z" fill="#CCCCCC"/>
<path d="M101.007 63.8238C101.024 63.8106 101.045 63.8035 101.067 63.8035C101.088 63.8035 101.109 63.8106 101.127 63.8238C101.146 63.8399 101.161 63.8608 101.171 63.8846C101.18 63.9084 101.183 63.9342 101.18 63.9596V64.5908C101.181 64.6603 101.163 64.7287 101.127 64.7877C101.1 64.8468 101.058 64.8981 101.007 64.937L98.9276 66.1588V67.8829L100.874 66.7358C100.892 66.7209 100.914 66.7127 100.937 66.7127C100.96 66.7127 100.983 66.7209 101 66.7358C101.019 66.7539 101.034 66.7762 101.043 66.8009C101.052 66.8255 101.056 66.852 101.054 66.8783V67.5028C101.052 67.574 101.034 67.6437 101 67.7064C100.973 67.7656 100.929 67.8152 100.874 67.8489L98.9276 68.9961V71.0324C98.9247 71.1013 98.9065 71.1686 98.8744 71.2292C98.8491 71.2877 98.8075 71.3373 98.7548 71.3718L98.2233 71.684C98.2061 71.6972 98.1851 71.7044 98.1635 71.7044C98.1419 71.7044 98.121 71.6972 98.1037 71.684C98.0837 71.6684 98.0682 71.6475 98.0588 71.6236C98.0495 71.5997 98.0466 71.5737 98.0506 71.5483V65.8126C98.0491 65.741 98.0676 65.6704 98.1037 65.609C98.129 65.5505 98.1706 65.501 98.2233 65.4665L101.007 63.8238Z" fill="#CCCCCC"/>
<path d="M101.732 65.7175C101.746 65.3743 101.793 65.0333 101.872 64.6994C101.951 64.3606 102.069 64.0325 102.224 63.7219C102.386 63.4125 102.582 63.1233 102.809 62.8599C103.051 62.5906 103.334 62.3616 103.646 62.1811C103.895 62.0181 104.176 61.9138 104.47 61.8757C104.68 61.8569 104.89 61.9173 105.061 62.0454C105.228 62.1943 105.352 62.3866 105.42 62.6019C105.506 62.8787 105.553 63.1668 105.559 63.4572C105.559 63.5658 105.559 63.688 105.559 63.8237V64.6654C105.559 64.8012 105.559 64.9301 105.559 65.0455C105.545 65.3888 105.499 65.7298 105.42 66.0637C105.34 66.4003 105.222 66.7261 105.067 67.0343C104.909 67.3473 104.71 67.6373 104.476 67.8964C104.235 68.1643 103.955 68.3931 103.646 68.5751C103.393 68.74 103.107 68.8445 102.809 68.8806C102.601 68.9008 102.393 68.8429 102.224 68.7177C102.054 68.5727 101.932 68.3787 101.872 68.1611C101.787 67.8862 101.74 67.6007 101.732 67.3126C101.732 67.1972 101.732 67.0751 101.732 66.9393V66.0976C101.719 65.9551 101.726 65.8125 101.732 65.7175ZM104.682 64.0206C104.696 63.87 104.676 63.7181 104.623 63.5768C104.569 63.4356 104.485 63.3087 104.377 63.2061C104.26 63.1446 104.129 63.1196 103.999 63.1341C103.869 63.1486 103.746 63.202 103.646 63.2875C103.334 63.474 103.081 63.747 102.915 64.0749C102.724 64.434 102.62 64.8341 102.609 65.2424C102.609 65.4732 102.609 65.7243 102.609 65.9958C102.609 66.2673 102.609 66.5185 102.609 66.7425C102.596 66.8911 102.616 67.0409 102.669 67.18C102.722 67.319 102.806 67.4435 102.915 67.5434C103.031 67.6048 103.162 67.6299 103.292 67.6154C103.422 67.6009 103.545 67.5475 103.646 67.462C103.954 67.2737 104.206 67.004 104.377 66.6814C104.566 66.3244 104.671 65.9267 104.682 65.5207C104.682 65.2899 104.682 65.0387 104.682 64.7604C104.682 64.4821 104.689 64.2378 104.682 64.0206Z" fill="#CCCCCC"/>
<path d="M109.943 58.5563C109.961 58.5415 109.984 58.5333 110.007 58.5333C110.03 58.5333 110.052 58.5415 110.07 58.5563C110.088 58.5749 110.101 58.5974 110.109 58.6221C110.117 58.6468 110.12 58.6731 110.116 58.6989V62.3371C110.12 62.6934 110.082 63.0488 110.003 63.396C109.925 63.733 109.807 64.0589 109.651 64.3666C109.492 64.6716 109.296 64.9545 109.067 65.2083C108.827 65.4732 108.552 65.7018 108.249 65.8871C108.001 66.0472 107.723 66.1513 107.432 66.1925C107.227 66.2226 107.018 66.1717 106.847 66.05C106.678 65.9034 106.557 65.7065 106.502 65.4866C106.418 65.1867 106.38 64.8753 106.389 64.5635V60.9253C106.389 60.8568 106.405 60.7892 106.436 60.7284C106.465 60.6688 106.508 60.6175 106.562 60.5791L107.093 60.2669C107.111 60.2536 107.131 60.2465 107.153 60.2465C107.175 60.2465 107.196 60.2536 107.213 60.2669C107.232 60.285 107.246 60.3073 107.255 60.332C107.264 60.3566 107.268 60.3831 107.266 60.4094V64.0001C107.261 64.1951 107.285 64.3898 107.339 64.5771C107.371 64.6983 107.441 64.8056 107.538 64.8825C107.632 64.9391 107.744 64.9584 107.851 64.9368C107.992 64.9096 108.127 64.8567 108.249 64.7807C108.395 64.6942 108.528 64.5893 108.648 64.4684C108.774 64.3428 108.882 64.1987 108.967 64.0408C109.056 63.8689 109.126 63.6866 109.173 63.4978C109.223 63.2753 109.248 63.0474 109.246 62.819V59.2215C109.249 59.1527 109.267 59.0853 109.299 59.0247C109.325 58.9643 109.369 58.9142 109.425 58.8822L109.943 58.5563Z" fill="#CCCCCC"/>
<path d="M114.063 62.3373C114.037 62.3528 114.007 62.3609 113.977 62.3609C113.946 62.3609 113.917 62.3528 113.89 62.3373L113.804 62.2626L111.984 59.7037V63.3554C111.982 63.4266 111.964 63.4964 111.93 63.5591C111.905 63.6195 111.861 63.6696 111.804 63.7016L111.279 64.0139C111.261 64.0267 111.239 64.0336 111.216 64.0336C111.194 64.0336 111.172 64.0267 111.153 64.0139C111.135 63.9967 111.121 63.9756 111.111 63.9521C111.102 63.9286 111.098 63.9033 111.1 63.8781V58.1425C111.103 58.0736 111.121 58.0063 111.153 57.9456C111.183 57.8879 111.226 57.8388 111.279 57.8031L111.738 57.5316C111.811 57.4841 111.864 57.4841 111.904 57.5316C111.935 57.5533 111.964 57.5783 111.99 57.6063L113.811 60.2195V56.5134C113.813 56.4422 113.831 56.3725 113.864 56.3098C113.891 56.2506 113.935 56.201 113.99 56.1673L114.515 55.855C114.533 55.8412 114.555 55.8338 114.578 55.8338C114.601 55.8338 114.623 55.8412 114.641 55.855C114.659 55.8722 114.674 55.8933 114.683 55.9167C114.692 55.9402 114.696 55.9655 114.694 55.9908V61.74C114.691 61.8089 114.673 61.8762 114.641 61.9368C114.614 61.996 114.57 62.0456 114.515 62.0794L114.063 62.3373Z" fill="#CCCCCC"/>
<path d="M117.465 54.0971C117.722 53.938 118.006 53.8298 118.302 53.7781C118.509 53.7496 118.72 53.8004 118.893 53.9207C119.069 54.0625 119.197 54.2572 119.259 54.4773C119.354 54.7756 119.405 55.0867 119.411 55.4004C119.411 55.828 119.411 56.2692 119.411 56.7172C119.398 57.0882 119.347 57.4568 119.259 57.8168C119.182 58.1597 119.062 58.4906 118.9 58.801C118.743 59.1049 118.546 59.3858 118.315 59.6359C118.077 59.9022 117.802 60.1309 117.498 60.3147L115.857 61.2786C115.84 61.2929 115.819 61.3008 115.797 61.3008C115.775 61.3008 115.754 61.2929 115.737 61.2786C115.717 61.2614 115.702 61.2393 115.693 61.2144C115.683 61.1894 115.68 61.1624 115.684 61.136V55.3936C115.683 55.3241 115.701 55.2558 115.737 55.1968C115.763 55.1364 115.804 55.0846 115.857 55.0474L117.465 54.0971ZM118.534 55.9163C118.531 55.7547 118.505 55.5945 118.455 55.4411C118.419 55.3216 118.35 55.2153 118.255 55.1357C118.208 55.0987 118.153 55.0719 118.095 55.0567C118.037 55.0415 117.976 55.0384 117.917 55.0474C117.744 55.0744 117.579 55.1368 117.432 55.2307L116.561 55.7466V59.7377L117.465 59.2015C117.637 59.1019 117.794 58.976 117.93 58.8282C118.061 58.6874 118.171 58.5272 118.255 58.3531C118.345 58.1816 118.412 57.9991 118.455 57.81C118.501 57.6211 118.528 57.4277 118.534 57.2331C118.581 56.7851 118.581 56.3507 118.561 55.9163H118.534Z" fill="#CCCCCC"/>
</svg>
